<svg width="165" height="95" viewBox="0 0 165 95" fill="none" xmlns="http://www.w3.org/2000/svg">
<g clip-path="url(#clip0_13_97)">
<path d="M21.0612 70.5025C21.0612 70.8894 19.0712 71.0829 15.0911 71.0829C9.56323 70.9171 6.79929 70.613 6.79929 70.1708V43.3053H4.64342C3.20617 43.3053 2.26643 42.0892 1.8242 39.6569C1.71364 38.9383 1.65836 38.2197 1.65836 37.5011C1.65836 35.7874 1.99004 34.0738 2.65338 32.3601C3.6484 29.9279 5.19621 28.7117 7.2968 28.7117C9.3974 28.7117 11.2769 29.2092 12.9352 30.2042C14.5936 31.1993 15.6992 32.1943 16.252 33.1893C19.7345 30.2042 23.8804 28.7117 28.6897 28.7117C33.499 28.7117 36.9815 30.0108 39.1374 32.6089C41.2933 35.207 42.3712 39.4634 42.3712 45.3783V70.2537C42.3712 70.9171 39.9942 71.2488 35.2402 71.2488C30.5415 71.2488 28.1922 70.9171 28.1922 70.2537V46.2904C28.1922 43.5264 27.2248 42.1445 25.29 42.1445C24.7373 42.1445 23.9634 42.3932 22.9683 42.8907C21.9733 43.333 21.3376 43.6646 21.0612 43.8858V70.5025Z" fill="#6D3F51"/>
<path d="M52.3464 57.0851C49.6669 54.103 48.3271 49.9757 48.3271 44.7031C48.3271 39.4305 49.6669 35.3032 52.3464 32.3212C55.0691 29.3391 58.721 27.8481 63.3021 27.8481C67.8832 27.8481 71.5135 29.3391 74.1931 32.3212C76.8726 35.3032 78.2123 39.4305 78.2123 44.7031C78.2123 49.9757 76.8726 54.103 74.1931 57.0851C71.5135 60.0671 67.8832 61.5581 63.3021 61.5581C58.721 61.5581 55.0691 60.0671 52.3464 57.0851ZM63.3021 38.6742C60.8819 38.6742 59.6718 40.6622 59.6718 44.6383C59.6718 48.6143 60.8819 50.6024 63.3021 50.6024C65.7656 50.6024 66.9973 48.6143 66.9973 44.6383C66.9973 40.6622 65.7656 38.6742 63.3021 38.6742ZM97.7055 60.5209C97.7055 61.0395 95.8903 61.2988 92.26 61.2988C87.9382 61.1259 85.7773 60.845 85.7773 60.4561V37.5073H82.4712C81.6068 37.5073 81.1746 36.0163 81.1746 33.0343C81.1746 32.2563 81.2394 31.3055 81.3691 30.1819C81.542 29.0582 81.8661 28.4964 82.3415 28.4964H85.7773V22.7916C85.7773 21.9272 87.5925 21.4951 91.2228 21.4951C94.8963 21.4951 96.7331 21.8408 96.7331 22.5323V26.6812L96.7979 28.4964H102.308C103.043 28.4964 103.41 30.009 103.41 33.0343C103.41 36.0595 103.043 37.5721 102.308 37.5721H97.7055V60.5209ZM131.167 59.1595C128.444 60.7586 124.943 61.5581 120.665 61.5581C116.386 61.5581 112.778 60.1103 109.839 57.2147C106.9 54.2759 105.431 50.235 105.431 45.0921C105.431 39.9059 106.835 35.7354 109.644 32.5805C112.497 29.4256 116.084 27.8481 120.406 27.8481C124.727 27.8481 128.055 28.9502 130.389 31.1543C132.766 33.3584 133.954 36.0379 133.954 39.1928C133.954 46.1941 129.935 49.6948 121.897 49.6948H117.424C117.424 50.9913 117.769 51.8989 118.461 52.4175C119.195 52.8929 120.254 53.1306 121.637 53.1306C124.663 53.1306 127.537 52.4391 130.259 51.0562C130.302 51.0129 130.497 51.3155 130.843 51.9637C131.88 53.8221 132.399 55.3996 132.399 56.6961C132.399 57.9494 131.988 58.7706 131.167 59.1595ZM123.063 40.4245C123.063 38.6094 122.177 37.7018 120.406 37.7018C119.584 37.7018 118.871 37.9611 118.266 38.4797C117.704 38.9551 117.424 39.6682 117.424 40.619V42.6286H120.924C122.35 42.6286 123.063 41.8939 123.063 40.4245ZM139.551 49.241C143.051 51.3587 145.817 52.4175 147.849 52.4175C149.145 52.4175 149.793 51.9637 149.793 51.0562C149.793 50.4079 148.67 49.5651 146.422 48.5279C141.02 46.3238 138.319 42.7151 138.319 37.7018C138.319 34.5037 139.486 32.0619 141.82 30.3764C144.154 28.6909 146.941 27.8481 150.182 27.8481C153.467 27.8481 156.233 28.1938 158.48 28.8853C160.771 29.5768 161.916 30.4844 161.916 31.6081C161.916 32.5589 161.441 33.8122 160.49 35.368C159.582 36.9239 158.956 37.7666 158.61 37.8963C156.752 36.859 154.742 36.3404 152.581 36.3404C151.414 36.3404 150.831 36.751 150.831 37.5721C150.831 38.0908 151.047 38.5445 151.479 38.9335C151.954 39.2793 152.797 39.733 154.007 40.2949C155.217 40.8135 156.211 41.2889 156.989 41.7211C157.81 42.1533 158.718 42.7583 159.712 43.5362C161.786 45.1785 162.824 47.3178 162.824 49.9541C162.824 53.4115 161.678 56.2207 159.388 58.3816C157.097 60.4993 153.64 61.5581 149.016 61.5581C145.947 61.5581 143.159 61.0395 140.653 60.0023C138.146 58.965 136.893 57.5388 136.893 55.7237C136.893 54.5136 137.174 53.2387 137.736 51.8989C138.341 50.5591 138.946 49.6732 139.551 49.241Z" fill="#6D3F51"/>
<path d="M50.0964 68.2808C50.0964 67.3268 50.8698 66.5534 51.8239 66.5534H67.3711V70.0083H51.8239C50.8698 70.0083 50.0964 69.2349 50.0964 68.2808V68.2808Z" fill="#9DC3BD"/>
<path d="M162.381 68.2809C162.381 69.235 161.608 70.0084 160.654 70.0084H143.379V66.5534H160.654C161.608 66.5534 162.381 67.3268 162.381 68.2809V68.2809Z" fill="#AAB395"/>
<path d="M67.3711 66.5534H86.3732V70.0083H67.3711V66.5534Z" fill="#EDCF85"/>
<path d="M86.373 66.5534H105.375V70.0083H86.373V66.5534Z" fill="#D2916D"/>
<path d="M105.375 66.5534H124.377V70.0083H105.375V66.5534Z" fill="#9D5E76"/>
<path d="M124.377 66.5534H143.379V70.0083H124.377V66.5534Z" fill="#E09999"/>
</g>
<defs>
<clipPath id="clip0_13_97">
<rect width="165" height="95" fill="white"/>
</clipPath>
</defs>
</svg>
