<svg width="67" height="61" viewBox="0 0 67 61" fill="none" xmlns="http://www.w3.org/2000/svg">
<g clip-path="url(#clip0_13_98)">
<path d="M32.0612 46.5025C32.0612 46.8894 30.0712 47.0829 26.0911 47.0829C20.5632 46.9171 17.7993 46.613 17.7993 46.1708V19.3053H15.6434C14.2062 19.3053 13.2664 18.0892 12.8242 15.6569C12.7136 14.9383 12.6584 14.2197 12.6584 13.5011C12.6584 11.7874 12.99 10.0738 13.6534 8.36012C14.6484 5.92785 16.1962 4.71172 18.2968 4.71172C20.3974 4.71172 22.2769 5.20923 23.9352 6.20425C25.5936 7.19927 26.6992 8.19428 27.252 9.1893C30.7345 6.20425 34.8804 4.71172 39.6897 4.71172C44.499 4.71172 47.9815 6.01077 50.1374 8.60888C52.2933 11.207 53.3712 15.4634 53.3712 21.3783V46.2537C53.3712 46.9171 50.9942 47.2488 46.2402 47.2488C41.5415 47.2488 39.1922 46.9171 39.1922 46.2537V22.2904C39.1922 19.5264 38.2248 18.1445 36.29 18.1445C35.7373 18.1445 34.9634 18.3932 33.9683 18.8907C32.9733 19.333 32.3376 19.6646 32.0612 19.8858V46.5025Z" fill="#9D5E76"/>
<path d="M13 54.6339C13 52.627 14.627 51 16.6339 51H19.8641V58.2679H16.6339C14.627 58.2679 13 56.6409 13 54.6339V54.6339Z" fill="#9DC3BD"/>
<path d="M58.2222 54.6339C58.2222 56.6409 56.5952 58.2679 54.5882 58.2679H50.5505V51H54.5882C56.5952 51 58.2222 52.627 58.2222 54.6339V54.6339Z" fill="#AAB395"/>
<path d="M19.864 51H27.5356V58.2679H19.864V51Z" fill="#EDCF85"/>
<path d="M27.5356 51H35.2073V58.2679H27.5356V51Z" fill="#D2916D"/>
<path d="M35.2075 51H42.8791V58.2679H35.2075V51Z" fill="#9D5E76"/>
<path d="M42.8789 51H50.5505V58.2679H42.8789V51Z" fill="#E09999"/>
</g>
<defs>
<clipPath id="clip0_13_98">
<rect width="67" height="61" fill="white"/>
</clipPath>
</defs>
</svg>
